<svg xmlns="http://www.w3.org/2000/svg" width="512" height="512" viewBox="0 0 512 512">
  <defs>
    <linearGradient id="bg" x1="0" x2="1" y1="0" y2="1">
      <stop offset="0" stop-color="#667eea"/>
      <stop offset="1" stop-color="#764ba2"/>
    </linearGradient>
    <filter id="shadow" x="-20%" y="-20%" width="140%" height="140%">
      <feDropShadow dx="0" dy="10" stdDeviation="14" flood-color="#000" flood-opacity="0.25"/>
    </filter>
  </defs>

  <rect x="32" y="32" width="448" height="448" rx="96" fill="url(#bg)"/>
  <g filter="url(#shadow)">
    <path
      d="M256 132c-70.2 0-127 56.8-127 127 0 70.2 56.8 127 127 127 70.2 0 127-56.8 127-127 0-70.2-56.8-127-127-127zm0 52c41.4 0 75 33.6 75 75 0 41.4-33.6 75-75 75-41.4 0-75-33.6-75-75 0-41.4 33.6-75 75-75z"
      fill="#fff"
      opacity="0.9"
    />
    <path
      d="M170 332c24 40 52 56 86 56s62-16 86-56"
      fill="none"
      stroke="#fff"
      stroke-width="18"
      stroke-linecap="round"
      opacity="0.95"
    />
  </g>
  <text x="256" y="470" text-anchor="middle" font-family="Arial, Helvetica, sans-serif" font-size="42" fill="#ffffff" opacity="0.9">
    AMS
  </text>
</svg>
